<?xml version="1.0" encoding="UTF-8" standalone="no"?>
<!-- Created with Inkscape (http://www.inkscape.org/) -->

<svg
   xmlns:osb="http://www.openswatchbook.org/uri/2009/osb"
   xmlns:dc="http://purl.org/dc/elements/1.1/"
   xmlns:cc="http://creativecommons.org/ns#"
   xmlns:rdf="http://www.w3.org/1999/02/22-rdf-syntax-ns#"
   xmlns:svg="http://www.w3.org/2000/svg"
   xmlns="http://www.w3.org/2000/svg"
   xmlns:sodipodi="http://sodipodi.sourceforge.net/DTD/sodipodi-0.dtd"
   xmlns:inkscape="http://www.inkscape.org/namespaces/inkscape"
   width="63.344704mm"
   height="8.1713495mm"
   viewBox="0 0 224.44974 28.953601"
   id="svg2"
   version="1.1"
   inkscape:version="0.91 r13725"
   sodipodi:docname="logo.svg">
  <defs
     id="defs4">
    <linearGradient
       id="linearGradient5586"
       osb:paint="solid">
      <stop
         style="stop-color:#000000;stop-opacity:1;"
         offset="0"
         id="stop5588" />
    </linearGradient>
  </defs>
  <sodipodi:namedview
     id="base"
     pagecolor="#ffffff"
     bordercolor="#666666"
     borderopacity="1.0"
     inkscape:pageopacity="0.0"
     inkscape:pageshadow="2"
     inkscape:zoom="4.1405373"
     inkscape:cx="128.75635"
     inkscape:cy="45.175077"
     inkscape:document-units="px"
     inkscape:current-layer="layer1"
     showgrid="false"
     inkscape:snap-grids="true"
     inkscape:snap-to-guides="true"
     inkscape:window-width="1855"
     inkscape:window-height="1056"
     inkscape:window-x="65"
     inkscape:window-y="24"
     inkscape:window-maximized="1"
     fit-margin-top="0"
     fit-margin-left="0"
     fit-margin-right="0"
     fit-margin-bottom="0" />
  <metadata
     id="metadata7">
    <rdf:RDF>
      <cc:Work
         rdf:about="">
        <dc:format>image/svg+xml</dc:format>
        <dc:type
           rdf:resource="http://purl.org/dc/dcmitype/StillImage" />
        <dc:title></dc:title>
      </cc:Work>
    </rdf:RDF>
  </metadata>
  <g
     inkscape:label="Ebene 1"
     inkscape:groupmode="layer"
     id="layer1"
     transform="translate(-274.42969,-424.21632)">
    <g
       style="font-style:normal;font-variant:normal;font-weight:normal;font-stretch:normal;font-size:medium;line-height:125%;font-family:'Linux Libertine Display O';-inkscape-font-specification:'Linux Libertine Display O';letter-spacing:0px;word-spacing:0px;fill:#383838;fill-opacity:1;stroke:none;stroke-width:1px;stroke-linecap:butt;stroke-linejoin:miter;stroke-opacity:1"
       id="g5776">
      <path
         inkscape:connector-curvature="0"
         d="m 314.73888,448.89632 0,-10.36 c 1.56,-1.6 2.56,-2.36 4.2,-2.36 2.44,0 4.6,2.04 4.6,7 0,4.96 -1.48,7.76 -5.28,7.76 -1.24,0 -2.72,-1.04 -3.52,-2.04 z m 0,-16.76 c 0,-2.96 0.04,-5.04 0.24,-7.52 0,-0.28 -0.12,-0.4 -0.36,-0.4 -1.04,0.4 -1.88,0.68 -3.48,0.8 l -0.08,0.12 c 0.28,1.72 0.48,4.68 0.48,7.72 l 0,16.36 c 0,1.56 -0.04,2.16 -0.2,3 0.24,0.24 0.68,0.32 1.12,0.32 0.44,-0.48 0.88,-1.16 1.32,-1.96 1.16,1 3,1.96 4.72,1.96 4.08,0 8.6,-2.88 8.6,-9.68 0,-4.88 -3.48,-8.28 -7.36,-8.28 -1.92,0 -3.64,0.52 -5,2 l 0,-4.44 z"
         style="fill:#383838;fill-opacity:1"
         id="path5754" />
      <path
         inkscape:connector-curvature="0"
         d="m 331.61513,428.25632 c 0,1.08 0.96,2.04 2.04,2.04 1.08,0 2.04,-0.96 2.04,-2.04 0,-1.08 -0.96,-2.04 -2.04,-2.04 -1.08,0 -2.04,0.96 -2.04,2.04 z m 0.4,14.48 0,2.2 c 0,3 -0.08,5.04 -0.36,7.2 l 0.08,0.12 c 0.48,-0.08 1.4,-0.12 1.88,-0.12 0.48,0 1.4,0.04 1.88,0.12 l 0.08,-0.12 c -0.32,-2.24 -0.36,-4.16 -0.36,-7.2 l 0,-2.84 c 0,-3 0.08,-4.44 0.36,-6.88 0,-0.36 -0.08,-0.4 -0.36,-0.4 -0.92,0.12 -2.64,0.12 -3.48,0.04 l -0.08,0.12 c 0.24,1.72 0.36,4.76 0.36,7.76 z"
         style="fill:#383838;fill-opacity:1"
         id="path5756" />
      <path
         inkscape:connector-curvature="0"
         d="m 346.16576,443.89632 -6.24,8.36 c 0.36,-0.04 1.04,-0.12 1.44,-0.12 0.4,0 1.32,0.08 1.76,0.12 1.52,-2.28 2.72,-4.48 4.32,-6.72 1.6,2.24 2.76,4.44 4.24,6.72 0.56,-0.08 1.4,-0.12 2.04,-0.12 0.6,0 1.64,0.08 2.28,0.12 -2.44,-3.12 -4.4,-6.2 -6.56,-9.32 l 6.6,-8.08 c -0.52,0.12 -1.4,0.12 -1.8,0.12 -0.44,0 -1.08,0 -1.48,-0.12 -1.56,2.24 -2.8,4.36 -4.48,6.56 -1.6,-2.2 -2.72,-4.32 -4.04,-6.56 -0.72,0.12 -1.48,0.12 -2.16,0.12 -0.64,0 -1.68,0 -2.32,-0.12 l 6.4,9.04 z"
         style="fill:#383838;fill-opacity:1"
         id="path5758" />
      <path
         inkscape:connector-curvature="0"
         d="m 362.00888,441.21632 c 0.68,-4.16 3.28,-5.04 4.56,-5.04 1.56,0 3.36,1.48 3.36,4.48 0,0.36 -0.16,0.56 -0.56,0.56 l -7.36,0 z m 10.68,6.76 c -1.4,1.52 -3.28,2.2 -5.48,2.2 -1.4,0 -3.28,-0.52 -4.36,-2.28 -0.72,-1.12 -0.96,-2.72 -0.96,-5.08 l 10.88,0 c 0.44,0 0.72,-0.24 0.72,-0.68 0,-3.36 -1.64,-7.56 -6.92,-7.56 -4.12,0 -8.2,3.32 -8.2,9.2 0,2.28 0.44,4.52 1.8,6.12 1.36,1.68 3.64,2.64 6.36,2.64 2.88,0 5.44,-1.48 6.96,-3.56 l -0.8,-1 z"
         style="fill:#383838;fill-opacity:1"
         id="path5760" />
      <path
         inkscape:connector-curvature="0"
         d="m 393.53388,444.93632 c 0,-1.28 0.08,-2.76 0.08,-4.04 0,-4.16 -1.36,-6.32 -4.96,-6.32 -1.52,0 -4.36,0.6 -6.92,3.6 l -0.08,-0.12 0,-2.92 c -0.04,-0.28 -0.08,-0.4 -0.24,-0.4 -0.92,0.2 -2.36,0.24 -3.24,0.12 l -0.08,0.12 c 0.28,1.76 0.36,4.76 0.36,7.76 l 0,2.2 c 0,3 -0.04,5.04 -0.36,7.2 l 0.08,0.12 c 0.48,-0.08 1.4,-0.12 1.88,-0.12 0.48,0 1.4,0.04 1.88,0.12 l 0.08,-0.12 c -0.32,-2.28 -0.36,-4.16 -0.36,-7.2 l 0,-4.68 c 2.04,-2.4 4.36,-3.28 5.8,-3.28 2.04,0 2.88,0.8 2.88,4.04 l 0,3.92 c 0,3 -0.08,5.08 -0.36,7.2 l 0.08,0.12 c 0.48,-0.08 1.4,-0.12 1.88,-0.12 0.48,0 1.4,0.04 1.88,0.12 l 0.08,-0.12 c -0.32,-2.28 -0.36,-4.16 -0.36,-7.2 z"
         style="fill:#383838;fill-opacity:1"
         id="path5762" />
      <path
         inkscape:connector-curvature="0"
         d="m 398.69638,448.09632 -0.68,3.36 c 2.28,0.8 4.52,1.08 6.04,1.08 5.52,0 6.8,-3.28 6.8,-5.48 0,-3.28 -2.6,-4.56 -5.44,-5.24 -1.52,-0.36 -3.72,-1.12 -3.72,-3.12 0,-1.64 1.32,-2.52 3.04,-2.52 2.08,0 3.36,1.64 4.28,2.72 l 0.56,-0.04 0.8,-2.96 -0.08,-0.12 c -1.16,-0.6 -3.36,-1.2 -5.4,-1.2 -2.96,0 -6.04,1.56 -6.04,4.88 0,3.2 2.36,4.28 4.8,4.92 2.32,0.64 4.04,1.28 4.04,3.24 0,2.12 -1.56,3.32 -3.68,3.32 -1.92,0 -3.6,-1.32 -4.72,-2.88 l -0.6,0.04 z"
         style="fill:#383838;fill-opacity:1"
         id="path5764" />
      <path
         inkscape:connector-curvature="0"
         d="m 417.55576,441.21632 c 0.68,-4.16 3.28,-5.04 4.56,-5.04 1.56,0 3.36,1.48 3.36,4.48 0,0.36 -0.16,0.56 -0.56,0.56 l -7.36,0 z m 10.68,6.76 c -1.4,1.52 -3.28,2.2 -5.48,2.2 -1.4,0 -3.28,-0.52 -4.36,-2.28 -0.72,-1.12 -0.96,-2.72 -0.96,-5.08 l 10.88,0 c 0.44,0 0.72,-0.24 0.72,-0.68 0,-3.36 -1.64,-7.56 -6.92,-7.56 -4.12,0 -8.2,3.32 -8.2,9.2 0,2.28 0.44,4.52 1.8,6.12 1.36,1.68 3.64,2.64 6.36,2.64 2.88,0 5.44,-1.48 6.96,-3.56 l -0.8,-1 z"
         style="fill:#383838;fill-opacity:1"
         id="path5766" />
    </g>
    <g
       style="font-style:normal;font-variant:normal;font-weight:normal;font-stretch:normal;font-size:medium;line-height:125%;font-family:'Linux Libertine Display O';-inkscape-font-specification:'Linux Libertine Display O';letter-spacing:0px;word-spacing:0px;fill:#000000;fill-opacity:1;stroke:none;stroke-width:1px;stroke-linecap:butt;stroke-linejoin:miter;stroke-opacity:1"
       id="g5785">
      <path
         d="m 434.57076,450.59632 c 0.28,1.19 0.77,1.645 1.89,1.89 l 0.14,0 c 0.98,-0.245 1.505,-0.735 1.89,-1.89 l 0,-0.14 c -0.35,-0.98 -0.875,-1.505 -1.89,-1.89 l -0.14,0 c -1.085,0.455 -1.575,0.98 -1.89,1.89 l 0,0.14 z"
         style="font-size:35px;fill:#999999"
         id="path5768"
         inkscape:connector-curvature="0" />
      <path
         d="m 449.15536,438.17132 c 1.33,0 2.555,1.015 3.5,2.59 l 0.455,-0.035 0.805,-2.87 -0.07,-0.105 c -1.085,-0.56 -2.905,-0.98 -4.655,-0.98 -3.64,0 -7.455,2.975 -7.455,7.735 0,4.9 2.765,7.98 7.035,7.98 2.1,0 3.745,-0.7 5.145,-2.485 l -0.665,-0.735 -0.14,0 c -1.33,1.19 -2.45,1.47 -3.745,1.47 -2.555,0 -4.55,-2.31 -4.55,-6.405 0,-3.85 2.03,-6.16 4.34,-6.16 z"
         style="font-size:35px;fill:#999999"
         id="path5770"
         inkscape:connector-curvature="0" />
      <path
         d="m 456.77443,444.96132 c 0,4.2 2.765,7.525 7.42,7.525 4.62,0 7.42,-3.255 7.42,-7.84 0,-4.76 -2.555,-7.875 -7.28,-7.875 -4.585,0 -7.56,3.22 -7.56,8.19 z m 7.315,-6.79 c 3.71,0 4.445,2.87 4.445,7.105 0,3.36 -1.68,5.81 -4.025,5.81 -3.71,0 -4.655,-4.025 -4.655,-6.72 0,-3.045 0.945,-6.195 4.235,-6.195 z"
         style="font-size:35px;fill:#999999"
         id="path5772"
         inkscape:connector-curvature="0" />
      <path
         d="m 478.61443,439.81632 0,-2.555 c 0,-0.245 -0.07,-0.35 -0.21,-0.35 -0.805,0.175 -2.065,0.21 -2.835,0.105 l -0.07,0.105 c 0.245,1.54 0.315,4.165 0.315,6.79 l 0,1.925 c 0,2.625 -0.035,4.41 -0.315,6.3 l 0.07,0.105 c 0.42,-0.07 1.225,-0.105 1.645,-0.105 0.42,0 1.225,0.035 1.645,0.105 l 0.07,-0.105 c -0.28,-1.995 -0.315,-3.64 -0.315,-6.3 l 0,-4.235 c 1.645,-1.68 3.605,-2.73 4.83,-2.73 1.33,0 2.31,0.77 2.31,3.115 l 0,3.85 c 0,2.625 -0.035,4.41 -0.315,6.3 l 0.07,0.105 c 0.42,-0.07 1.225,-0.105 1.645,-0.105 0.42,0 1.225,0.035 1.645,0.105 l 0.07,-0.105 c -0.28,-1.995 -0.315,-3.64 -0.315,-6.3 l 0,-3.535 c 0,-0.49 0,-0.91 -0.035,-1.33 1.68,-1.855 3.08,-2.1 4.445,-2.1 1.89,0 2.8,0.77 2.8,3.115 l 0,3.85 c 0,2.625 -0.035,4.41 -0.315,6.3 l 0.07,0.105 c 0.42,-0.07 1.225,-0.105 1.645,-0.105 0.42,0 1.225,0.035 1.645,0.105 l 0.07,-0.105 c -0.28,-1.995 -0.315,-3.64 -0.315,-6.3 l 0,-3.5 c 0,-3.115 -0.56,-5.565 -4.34,-5.565 -1.89,0 -3.92,0.665 -5.915,2.765 -0.315,-1.68 -1.75,-2.765 -3.71,-2.765 -2.17,0 -4.235,1.4 -5.88,3.15 l -0.105,-0.105 z"
         style="font-size:35px;fill:#999999"
         id="path5774"
         inkscape:connector-curvature="0" />
    </g>
    <path
       style="color:#000000;font-style:normal;font-variant:normal;font-weight:normal;font-stretch:normal;font-size:medium;line-height:normal;font-family:sans-serif;text-indent:0;text-align:start;text-decoration:none;text-decoration-line:none;text-decoration-style:solid;text-decoration-color:#000000;letter-spacing:normal;word-spacing:normal;text-transform:none;direction:ltr;block-progression:tb;writing-mode:lr-tb;baseline-shift:baseline;text-anchor:start;white-space:normal;clip-rule:nonzero;display:inline;overflow:visible;visibility:visible;opacity:0.594;isolation:auto;mix-blend-mode:normal;color-interpolation:sRGB;color-interpolation-filters:linearRGB;solid-color:#000000;solid-opacity:1;fill:#077ed2;fill-opacity:1;fill-rule:nonzero;stroke:none;stroke-width:2.41945386;stroke-linecap:butt;stroke-linejoin:bevel;stroke-miterlimit:4;stroke-dasharray:none;stroke-dashoffset:0;stroke-opacity:1;color-rendering:auto;image-rendering:auto;shape-rendering:auto;text-rendering:auto;enable-background:accumulate"
       d="m 282.9082,434.94531 -0.94531,0.45508 -7.26953,9.10742 -0.26367,0.75586 0,6.69531 1.20898,1.21094 22.7168,0 0.94726,-0.45508 3.32422,-4.16796 0.26563,-0.75391 0,-11.63867 -1.21094,-1.20899 z m -0.0493,2.98618 17.34592,-0.47892 0.66833,9.91657 -3.28909,3.69653 -20.73638,-0.31567 -0.32499,-5.38107 z"
       id="rect3340"
       inkscape:connector-curvature="0"
       sodipodi:nodetypes="cccccccccccccccccccc" />
    <text
       xml:space="preserve"
       style="font-style:normal;font-weight:normal;font-size:40px;line-height:125%;font-family:sans-serif;letter-spacing:0px;word-spacing:0px;fill:#000000;fill-opacity:1;stroke:none;stroke-width:1px;stroke-linecap:butt;stroke-linejoin:miter;stroke-opacity:1"
       x="267.94296"
       y="433.8963"
       id="text5596"
       sodipodi:linespacing="125%"><tspan
         sodipodi:role="line"
         id="tspan5598"
         x="267.94296"
         y="433.8963" /></text>
  </g>
</svg>
